<?xml version="1.0" encoding="utf-8"?>
<!-- Generator: Adobe Illustrator 18.1.1, SVG Export Plug-In . SVG Version: 6.00 Build 0)  -->
<!DOCTYPE svg PUBLIC "-//W3C//DTD SVG 1.1//EN" "http://www.w3.org/Graphics/SVG/1.1/DTD/svg11.dtd">
<svg version="1.1" id="Layer_1" xmlns="http://www.w3.org/2000/svg" xmlns:xlink="http://www.w3.org/1999/xlink" x="0px" y="0px"
	 viewBox="0 0 283.5 283.5" enable-background="new 0 0 283.5 283.5" xml:space="preserve">
<g>
	<path fill="#33241C" d="M199.9,158.8c0,0-2.7,0.4-3.7,0.4H151v20.5C160.9,178.5,180.6,173.1,199.9,158.8 M113.1,182.9v-23.6H32.2
		C52.7,172.9,75.7,182.2,113.1,182.9 M84.4,124.4h90.8c44.1,0,44.1-69-3.7-69H85.7C103.7,77.8,102.5,114.4,84.4,124.4 M235.7,131.3
		c9.1-4.3,14.7-5.5,20.4-6.2c4.4-0.6,22.4,0,22.4,0v34.8c-34.8,0.6-36.6,27.3-26.1,47.9c16.8,33-2.5,75.9-44.8,75.9H12.9v-38.6
		c0,0,163.6-0.6,181,0c19.3,0.6,23-15.5,20.5-25.5c-2.5-9.9-6.2-25.5-6.2-25.5c-57.2,32.3-143.7,31.7-195.3-6.2v-63.4
		c0,0,13.1-0.1,18,0c47.9,0.5,43-70.4-1.2-68.5H12.9l0.6-34.8h106.3V0h29.9v21.1c0,0,12.4-0.2,24.9,0c74.6,1.2,82.1,79.5,61.2,106.9
		c-1.5,2-2.4,3.2-3.6,4.9C233.6,132.3,234.5,132,235.7,131.3"/>
</g>
</svg>
