<?xml version="1.0" encoding="utf-8"?>
<!-- Generator: Adobe Illustrator 18.1.1, SVG Export Plug-In . SVG Version: 6.00 Build 0)  -->
<!DOCTYPE svg PUBLIC "-//W3C//DTD SVG 1.1//EN" "http://www.w3.org/Graphics/SVG/1.1/DTD/svg11.dtd">
<svg version="1.1" id="Layer_1" xmlns="http://www.w3.org/2000/svg" xmlns:xlink="http://www.w3.org/1999/xlink" x="0px" y="0px"
	 viewBox="1165.6 816.9 56.5 79.3" enable-background="new 1165.6 816.9 56.5 79.3" xml:space="preserve">
<rect x="1165.6" y="816.9" fill="#ABA586" width="50" height="50"/>
<g>
	<path fill="#FFFFFF" d="M1199.2,843.8c0,0-0.4,0.1-0.5,0.1h-6.4v2.9C1193.7,846.6,1196.5,845.8,1199.2,843.8 M1187,847.2v-3.3
		h-11.4C1178.4,845.8,1181.7,847.1,1187,847.2 M1182.9,838.9h12.8c6.2,0,6.2-9.7-0.5-9.7h-12.1
		C1185.6,832.4,1185.5,837.5,1182.9,838.9 M1204.2,839.9c1.3-0.6,2.1-0.8,2.9-0.9c0.6-0.1,3.2,0,3.2,0v4.9c-4.9,0.1-5.2,3.8-3.7,6.8
		c2.4,4.7-0.4,10.7-6.3,10.7h-27.5v-5.4c0,0,23.1-0.1,25.5,0c2.7,0.1,3.2-2.2,2.9-3.6c-0.4-1.4-0.9-3.6-0.9-3.6
		c-8.1,4.6-20.3,4.5-27.5-0.9v-8.9c0,0,1.8,0,2.5,0c6.8,0.1,6.1-9.9-0.2-9.7h-2.4l0.1-4.9h15v-3h4.2v3c0,0,1.7,0,3.5,0
		c10.5,0.2,11.6,11.2,8.6,15.1c-0.2,0.3-0.3,0.5-0.5,0.7C1203.9,840,1204.1,840,1204.2,839.9"/>
</g>
<polygon fill="#ABA586" points="1190.6,896.2 1165.8,865.6 1177.1,866.9 "/>
</svg>
